<?xml version="1.0" encoding="utf-8"?>
<!DOCTYPE svg PUBLIC "-//W3C//DTD SVG 1.1//EN" "http://www.w3.org/Graphics/SVG/1.1/DTD/svg11.dtd">
<svg class="marks" width="411" height="368" viewBox="0 0 411 368" version="1.1" xmlns="http://www.w3.org/2000/svg" xmlns:xlink="http://www.w3.org/1999/xlink"><rect width="411" height="368" fill="white"></rect><g fill="none" stroke-miterlimit="10" transform="translate(53,27)"><g class="mark-group role-frame root" role="graphics-object" aria-roledescription="group mark container"><g transform="translate(0,0)"><path class="background" aria-hidden="true" d="M0.5,0.5h325v275h-325Z" stroke="#ddd"></path><g><g class="mark-group role-axis" aria-hidden="true"><g transform="translate(0.5,275.5)"><path class="background" aria-hidden="true" d="M0,0h0v0h0Z" pointer-events="none"></path><g><g class="mark-rule role-axis-grid" pointer-events="none"><line transform="translate(0,-275)" x2="0" y2="275" stroke="#ddd" stroke-width="1" opacity="1"></line><line transform="translate(33,-275)" x2="0" y2="275" stroke="#ddd" stroke-width="1" opacity="1"></line><line transform="translate(65,-275)" x2="0" y2="275" stroke="#ddd" stroke-width="1" opacity="1"></line><line transform="translate(98,-275)" x2="0" y2="275" stroke="#ddd" stroke-width="1" opacity="1"></line><line transform="translate(130,-275)" x2="0" y2="275" stroke="#ddd" stroke-width="1" opacity="1"></line><line transform="translate(163,-275)" x2="0" y2="275" stroke="#ddd" stroke-width="1" opacity="1"></line><line transform="translate(195,-275)" x2="0" y2="275" stroke="#ddd" stroke-width="1" opacity="1"></line><line transform="translate(227,-275)" x2="0" y2="275" stroke="#ddd" stroke-width="1" opacity="1"></line><line transform="translate(260,-275)" x2="0" y2="275" stroke="#ddd" stroke-width="1" opacity="1"></line><line transform="translate(293,-275)" x2="0" y2="275" stroke="#ddd" stroke-width="1" opacity="1"></line><line transform="translate(325,-275)" x2="0" y2="275" stroke="#ddd" stroke-width="1" opacity="1"></line></g></g><path class="foreground" aria-hidden="true" d="" pointer-events="none" display="none"></path></g></g><g class="mark-group role-axis" aria-hidden="true"><g transform="translate(0.5,0.5)"><path class="background" aria-hidden="true" d="M0,0h0v0h0Z" pointer-events="none"></path><g><g class="mark-rule role-axis-grid" pointer-events="none"><line transform="translate(0,275)" x2="325" y2="0" stroke="#ddd" stroke-width="1" opacity="1"></line><line transform="translate(0,241)" x2="325" y2="0" stroke="#ddd" stroke-width="1" opacity="1"></line><line transform="translate(0,206)" x2="325" y2="0" stroke="#ddd" stroke-width="1" opacity="1"></line><line transform="translate(0,172)" x2="325" y2="0" stroke="#ddd" stroke-width="1" opacity="1"></line><line transform="translate(0,138)" x2="325" y2="0" stroke="#ddd" stroke-width="1" opacity="1"></line><line transform="translate(0,103)" x2="325" y2="0" stroke="#ddd" stroke-width="1" opacity="1"></line><line transform="translate(0,69)" x2="325" y2="0" stroke="#ddd" stroke-width="1" opacity="1"></line><line transform="translate(0,34)" x2="325" y2="0" stroke="#ddd" stroke-width="1" opacity="1"></line><line transform="translate(0,0)" x2="325" y2="0" stroke="#ddd" stroke-width="1" opacity="1"></line></g></g><path class="foreground" aria-hidden="true" d="" pointer-events="none" display="none"></path></g></g><g class="mark-group role-axis" role="graphics-symbol" aria-roledescription="axis" aria-label="X-axis titled 'Year' for a linear scale with values from 2009 to 2019"><g transform="translate(0.5,275.5)"><path class="background" aria-hidden="true" d="M0,0h0v0h0Z" pointer-events="none"></path><g><g class="mark-rule role-axis-tick" pointer-events="none"><line transform="translate(0,0)" x2="0" y2="5" stroke="#888" stroke-width="1" opacity="1"></line><line transform="translate(33,0)" x2="0" y2="5" stroke="#888" stroke-width="1" opacity="1"></line><line transform="translate(65,0)" x2="0" y2="5" stroke="#888" stroke-width="1" opacity="1"></line><line transform="translate(98,0)" x2="0" y2="5" stroke="#888" stroke-width="1" opacity="1"></line><line transform="translate(130,0)" x2="0" y2="5" stroke="#888" stroke-width="1" opacity="1"></line><line transform="translate(163,0)" x2="0" y2="5" stroke="#888" stroke-width="1" opacity="1"></line><line transform="translate(195,0)" x2="0" y2="5" stroke="#888" stroke-width="1" opacity="1"></line><line transform="translate(227,0)" x2="0" y2="5" stroke="#888" stroke-width="1" opacity="1"></line><line transform="translate(260,0)" x2="0" y2="5" stroke="#888" stroke-width="1" opacity="1"></line><line transform="translate(293,0)" x2="0" y2="5" stroke="#888" stroke-width="1" opacity="1"></line><line transform="translate(325,0)" x2="0" y2="5" stroke="#888" stroke-width="1" opacity="1"></line></g><g class="mark-text role-axis-label" pointer-events="none"><text text-anchor="start" transform="translate(0,15)" font-family="sans-serif" font-size="10px" fill="#000" opacity="1">2009</text><text text-anchor="middle" transform="translate(32.5,15)" font-family="sans-serif" font-size="10px" fill="#000" opacity="0">2010</text><text text-anchor="middle" transform="translate(65,15)" font-family="sans-serif" font-size="10px" fill="#000" opacity="1">2011</text><text text-anchor="middle" transform="translate(97.5,15)" font-family="sans-serif" font-size="10px" fill="#000" opacity="0">2012</text><text text-anchor="middle" transform="translate(130,15)" font-family="sans-serif" font-size="10px" fill="#000" opacity="1">2013</text><text text-anchor="middle" transform="translate(162.5,15)" font-family="sans-serif" font-size="10px" fill="#000" opacity="0">2014</text><text text-anchor="middle" transform="translate(195,15)" font-family="sans-serif" font-size="10px" fill="#000" opacity="1">2015</text><text text-anchor="middle" transform="translate(227.49999999999997,15)" font-family="sans-serif" font-size="10px" fill="#000" opacity="0">2016</text><text text-anchor="middle" transform="translate(260,15)" font-family="sans-serif" font-size="10px" fill="#000" opacity="1">2017</text><text text-anchor="middle" transform="translate(292.5,15)" font-family="sans-serif" font-size="10px" fill="#000" opacity="0">2018</text><text text-anchor="end" transform="translate(325,15)" font-family="sans-serif" font-size="10px" fill="#000" opacity="1">2019</text></g><g class="mark-rule role-axis-domain" pointer-events="none"><line transform="translate(0,0)" x2="325" y2="0" stroke="#888" stroke-width="1" opacity="1"></line></g><g class="mark-text role-axis-title" pointer-events="none"><text text-anchor="middle" transform="translate(162.5,30)" font-family="sans-serif" font-size="11px" font-weight="bold" fill="#000" opacity="1">Year</text></g></g><path class="foreground" aria-hidden="true" d="" pointer-events="none" display="none"></path></g></g><g class="mark-group role-axis" role="graphics-symbol" aria-roledescription="axis" aria-label="Y-axis titled 'Lines Added' for a linear scale with values from 0M to 400M"><g transform="translate(0.5,0.5)"><path class="background" aria-hidden="true" d="M0,0h0v0h0Z" pointer-events="none"></path><g><g class="mark-rule role-axis-tick" pointer-events="none"><line transform="translate(0,275)" x2="-5" y2="0" stroke="#888" stroke-width="1" opacity="1"></line><line transform="translate(0,241)" x2="-5" y2="0" stroke="#888" stroke-width="1" opacity="1"></line><line transform="translate(0,206)" x2="-5" y2="0" stroke="#888" stroke-width="1" opacity="1"></line><line transform="translate(0,172)" x2="-5" y2="0" stroke="#888" stroke-width="1" opacity="1"></line><line transform="translate(0,138)" x2="-5" y2="0" stroke="#888" stroke-width="1" opacity="1"></line><line transform="translate(0,103)" x2="-5" y2="0" stroke="#888" stroke-width="1" opacity="1"></line><line transform="translate(0,69)" x2="-5" y2="0" stroke="#888" stroke-width="1" opacity="1"></line><line transform="translate(0,34)" x2="-5" y2="0" stroke="#888" stroke-width="1" opacity="1"></line><line transform="translate(0,0)" x2="-5" y2="0" stroke="#888" stroke-width="1" opacity="1"></line></g><g class="mark-text role-axis-label" pointer-events="none"><text text-anchor="end" transform="translate(-7,278)" font-family="sans-serif" font-size="10px" fill="#000" opacity="1">0M</text><text text-anchor="end" transform="translate(-7,243.625)" font-family="sans-serif" font-size="10px" fill="#000" opacity="1">50M</text><text text-anchor="end" transform="translate(-7,209.25)" font-family="sans-serif" font-size="10px" fill="#000" opacity="1">100M</text><text text-anchor="end" transform="translate(-7,174.875)" font-family="sans-serif" font-size="10px" fill="#000" opacity="1">150M</text><text text-anchor="end" transform="translate(-7,140.5)" font-family="sans-serif" font-size="10px" fill="#000" opacity="1">200M</text><text text-anchor="end" transform="translate(-7,106.125)" font-family="sans-serif" font-size="10px" fill="#000" opacity="1">250M</text><text text-anchor="end" transform="translate(-7,71.75)" font-family="sans-serif" font-size="10px" fill="#000" opacity="1">300M</text><text text-anchor="end" transform="translate(-7,37.375)" font-family="sans-serif" font-size="10px" fill="#000" opacity="1">350M</text><text text-anchor="end" transform="translate(-7,3)" font-family="sans-serif" font-size="10px" fill="#000" opacity="1">400M</text></g><g class="mark-rule role-axis-domain" pointer-events="none"><line transform="translate(0,275)" x2="0" y2="-275" stroke="#888" stroke-width="1" opacity="1"></line></g><g class="mark-text role-axis-title" pointer-events="none"><text text-anchor="middle" transform="translate(-37,137.5) rotate(-90) translate(0,-2)" font-family="sans-serif" font-size="11px" font-weight="bold" fill="#000" opacity="1">Lines Added</text></g></g><path class="foreground" aria-hidden="true" d="" pointer-events="none" display="none"></path></g></g><g class="mark-group role-scope pathgroup" role="graphics-object" aria-roledescription="group mark container"><g transform="translate(0,0)"><path class="background" aria-hidden="true" d="M0,0h325v275h-325Z"></path><g><g class="mark-line role-mark marks" role="graphics-object" aria-roledescription="line mark container"><path aria-label="Year: 2009; Lines Added: 326.000; sector: NaN" role="graphics-symbol" aria-roledescription="line mark" d="M0,274.999775875L32.5,274.9502215625L65,274.8095343125L97.5,260.45785562500004L130,272.8557115625L162.5,265.82733993749997L195,223.7166408125L227.49999999999997,185.07314374999999L260,175.8754518125L292.5,124.56827487500001L325,33.0681608125" stroke="#e45756" stroke-width="2"></path></g></g><path class="foreground" aria-hidden="true" d="" display="none"></path></g><g transform="translate(0,0)"><path class="background" aria-hidden="true" d="M0,0h325v275h-325Z"></path><g><g class="mark-line role-mark marks" role="graphics-object" aria-roledescription="line mark container"><path aria-label="Year: 2009; Lines Added: 558.233k; sector: NaN" role="graphics-symbol" aria-roledescription="line mark" d="M0,274.6162148125L32.5,274.25134825000004L65,274.5211954375L97.5,272.359792375L130,246.03080081250002L162.5,251.4761266875L195,262.2186875L227.49999999999997,235.3346785625L260,159.681845125L292.5,100.46708581250002L325,69.44480675" stroke="#72b7b2" stroke-width="2"></path></g></g><path class="foreground" aria-hidden="true" d="" display="none"></path></g><g transform="translate(0,0)"><path class="background" aria-hidden="true" d="M0,0h325v275h-325Z"></path><g><g class="mark-line role-mark marks" role="graphics-object" aria-roledescription="line mark container"><path aria-label="Year: 2009; Lines Added: 219.000; sector: NaN" role="graphics-symbol" aria-roledescription="line mark" d="M0,274.9998494375L32.5,274.97198987499996L65,274.835831875L97.5,274.862776375L130,270.991557375L162.5,266.9434315625L195,265.3073775L227.49999999999997,242.706770625L260,241.3434189375L292.5,243.43086556249997L325,232.350019" stroke="#f58518" stroke-width="2"></path></g></g><path class="foreground" aria-hidden="true" d="" display="none"></path></g><g transform="translate(0,0)"><path class="background" aria-hidden="true" d="M0,0h325v275h-325Z"></path><g><g class="mark-line role-mark marks" role="graphics-object" aria-roledescription="line mark container"><path aria-label="Year: 2009; Lines Added: 513.380k; sector: NaN" role="graphics-symbol" aria-roledescription="line mark" d="M0,274.64705125L32.5,274.83764756249997L65,273.96026143750004L97.5,273.167384875L130,257.692012875L162.5,238.5953095625L195,228.54999268749998L227.49999999999997,203.8919815625L260,159.462499625L292.5,125.11210799999999L325,65.03557156250001" stroke="#4c78a8" stroke-width="2"></path></g></g><path class="foreground" aria-hidden="true" d="" display="none"></path></g><g transform="translate(0,0)"><path class="background" aria-hidden="true" d="M0,0h325v275h-325Z"></path><g><g class="mark-line role-mark marks" role="graphics-object" aria-roledescription="line mark container"><path aria-label="Year: 2009; Lines Added: 73.6710k; sector: NaN" role="graphics-symbol" aria-roledescription="line mark" d="M0,274.9493511875L32.5,274.9421186875L65,273.637923625L97.5,274.1946631875L130,267.773171875L162.5,267.4154635625L195,252.601837125L227.49999999999997,226.39688293749998L260,207.83436781249998L292.5,183.82382356249997L325,154.9372556875" stroke="#54a24b" stroke-width="2"></path></g></g><path class="foreground" aria-hidden="true" d="" display="none"></path></g></g><g class="mark-group role-legend" role="graphics-symbol" aria-roledescription="legend" aria-label="Symbol legend for stroke color with 5 values: DOE, Federal ∖ DOE, Microsoft, Red Hat, UC Berkeley"><g transform="translate(0,325)"><path class="background" aria-hidden="true" d="M0,0h353v11h-353Z" pointer-events="none"></path><g><g class="mark-group role-legend-entry"><g transform="translate(0,0)"><path class="background" aria-hidden="true" d="M0,0h0v0h0Z" pointer-events="none"></path><g><g class="mark-group role-scope" role="graphics-object" aria-roledescription="group mark container"><g transform="translate(0,0)"><path class="background" aria-hidden="true" d="M0,0h38v11h-38Z" pointer-events="none" opacity="1"></path><g><g class="mark-symbol role-legend-symbol" pointer-events="none"><path transform="translate(6,6)" d="M-5,0L5,0" stroke="#4c78a8" stroke-width="1.5" opacity="1"></path></g><g class="mark-text role-legend-label" pointer-events="none"><text text-anchor="start" transform="translate(16,9)" font-family="sans-serif" font-size="10px" fill="#000" opacity="1">DOE</text></g></g><path class="foreground" aria-hidden="true" d="" pointer-events="none" display="none"></path></g><g transform="translate(49,0)"><path class="background" aria-hidden="true" d="M0,0h87v11h-87Z" pointer-events="none" opacity="1"></path><g><g class="mark-symbol role-legend-symbol" pointer-events="none"><path transform="translate(6,6)" d="M-5,0L5,0" stroke="#f58518" stroke-width="1.5" opacity="1"></path></g><g class="mark-text role-legend-label" pointer-events="none"><text text-anchor="start" transform="translate(16,9)" font-family="sans-serif" font-size="10px" fill="#000" opacity="1">Federal ∖ DOE</text></g></g><path class="foreground" aria-hidden="true" d="" pointer-events="none" display="none"></path></g><g transform="translate(147,0)"><path class="background" aria-hidden="true" d="M0,0h57v11h-57Z" pointer-events="none" opacity="1"></path><g><g class="mark-symbol role-legend-symbol" pointer-events="none"><path transform="translate(6,6)" d="M-5,0L5,0" stroke="#e45756" stroke-width="1.5" opacity="1"></path></g><g class="mark-text role-legend-label" pointer-events="none"><text text-anchor="start" transform="translate(16,9)" font-family="sans-serif" font-size="10px" fill="#000" opacity="1">Microsoft</text></g></g><path class="foreground" aria-hidden="true" d="" pointer-events="none" display="none"></path></g><g transform="translate(215,0)"><path class="background" aria-hidden="true" d="M0,0h54v11h-54Z" pointer-events="none" opacity="1"></path><g><g class="mark-symbol role-legend-symbol" pointer-events="none"><path transform="translate(6,6)" d="M-5,0L5,0" stroke="#72b7b2" stroke-width="1.5" opacity="1"></path></g><g class="mark-text role-legend-label" pointer-events="none"><text text-anchor="start" transform="translate(16,9)" font-family="sans-serif" font-size="10px" fill="#000" opacity="1">Red Hat</text></g></g><path class="foreground" aria-hidden="true" d="" pointer-events="none" display="none"></path></g><g transform="translate(280,0)"><path class="background" aria-hidden="true" d="M0,0h73v11h-73Z" pointer-events="none" opacity="1"></path><g><g class="mark-symbol role-legend-symbol" pointer-events="none"><path transform="translate(6,6)" d="M-5,0L5,0" stroke="#54a24b" stroke-width="1.5" opacity="1"></path></g><g class="mark-text role-legend-label" pointer-events="none"><text text-anchor="start" transform="translate(16,9)" font-family="sans-serif" font-size="10px" fill="#000" opacity="1">UC Berkeley</text></g></g><path class="foreground" aria-hidden="true" d="" pointer-events="none" display="none"></path></g></g></g><path class="foreground" aria-hidden="true" d="" pointer-events="none" display="none"></path></g></g></g><path class="foreground" aria-hidden="true" d="" pointer-events="none" display="none"></path></g></g><g class="mark-group role-title"><g transform="translate(162.5,-22)"><path class="background" aria-hidden="true" d="M0,0h0v0h0Z" pointer-events="none"></path><g><g class="mark-text role-title-text" role="graphics-symbol" aria-roledescription="title" aria-label="Title text 'Federal Government Contribution to OSS on GitHub'" pointer-events="none"><text text-anchor="middle" transform="translate(0,10)" font-family="sans-serif" font-size="13px" font-weight="bold" fill="#000" opacity="1">Federal Government Contribution to OSS on GitHub</text></g></g><path class="foreground" aria-hidden="true" d="" pointer-events="none" display="none"></path></g></g></g><path class="foreground" aria-hidden="true" d="" display="none"></path></g></g></g></svg>
